<svg width="37" height="32" viewBox="0 0 37 32" fill="none" xmlns="http://www.w3.org/2000/svg">
<path fill-rule="evenodd" clip-rule="evenodd" d="M16.0001 1.77783C8.14534 1.77783 1.77783 8.14534 1.77783 16.0001C1.77783 23.8548 8.14534 30.2223 16.0001 30.2223C23.8548 30.2223 30.2223 23.8548 30.2223 16.0001C30.2223 12.2281 28.7239 8.61061 26.0567 5.94342C23.3895 3.27624 19.772 1.77783 16.0001 1.77783ZM11.7372 8.13339C8.87254 9.68565 7.0946 12.6885 7.11117 15.9467C7.12716 20.158 10.0961 23.7801 14.2223 24.6223L13.9823 25.9823C9.91144 25.192 6.71574 22.0303 5.88188 17.9682C5.04803 13.9061 6.73979 9.74115 10.1701 7.41108C13.6004 5.081 18.0956 5.04334 21.5645 7.31561L20.8089 8.5245C18.0885 6.73145 14.602 6.58113 11.7372 8.13339ZM16.8178 9.55561V16.3556L21.2712 19.3867C21.5547 19.5543 21.7223 19.8649 21.7067 20.1939C21.6911 20.5229 21.4949 20.8163 21.1969 20.9564C20.8988 21.0965 20.5477 21.0602 20.2845 20.8623L15.0401 17.3067V9.55561C15.0401 9.06469 15.438 8.66672 15.9289 8.66672C16.4199 8.66672 16.8178 9.06469 16.8178 9.55561ZM3.55561 16.0001C3.55561 22.8729 9.12718 28.4445 16.0001 28.4445C19.3005 28.4445 22.4658 27.1334 24.7996 24.7996C27.1334 22.4658 28.4445 19.3005 28.4445 16.0001C28.4445 9.12718 22.8729 3.55561 16.0001 3.55561C9.12718 3.55561 3.55561 9.12718 3.55561 16.0001Z" fill="#0079B8"/>
<mask id="path-2-outside-1" maskUnits="userSpaceOnUse" x="21" y="7" width="16" height="12" fill="black">
<rect fill="white" x="21" y="7" width="16" height="12"/>
<path d="M27.0245 17.435L22.2306 12.641C21.9048 12.2606 21.9267 11.6935 22.2808 11.3394C22.635 10.9852 23.202 10.9633 23.5825 11.2891L27.0245 14.7312L33.5251 8.23055C33.9056 7.90478 34.4726 7.92668 34.8268 8.28083C35.1809 8.63498 35.2028 9.20204 34.877 9.58245L27.0245 17.435Z"/>
</mask>
<path d="M27.0245 17.435L22.2306 12.641C21.9048 12.2606 21.9267 11.6935 22.2808 11.3394C22.635 10.9852 23.202 10.9633 23.5825 11.2891L27.0245 14.7312L33.5251 8.23055C33.9056 7.90478 34.4726 7.92668 34.8268 8.28083C35.1809 8.63498 35.2028 9.20204 34.877 9.58245L27.0245 17.435Z" fill="#0079B8"/>
<path d="M27.0245 17.435L26.3174 18.1421L27.0245 18.8492L27.7316 18.1421L27.0245 17.435ZM22.2306 12.641L21.471 13.2915L21.4961 13.3208L21.5234 13.3481L22.2306 12.641ZM23.5825 11.2891L24.2896 10.582L24.2622 10.5547L24.2329 10.5296L23.5825 11.2891ZM27.0245 14.7312L26.3174 15.4383L27.0245 16.1454L27.7316 15.4383L27.0245 14.7312ZM33.5251 8.23055L32.8747 7.47101L32.8453 7.49613L32.818 7.52344L33.5251 8.23055ZM34.877 9.58245L35.5841 10.2896L35.6115 10.2622L35.6366 10.2329L34.877 9.58245ZM27.7316 16.7279L22.9377 11.9339L21.5234 13.3481L26.3174 18.1421L27.7316 16.7279ZM22.9901 11.9905C23.0041 12.0069 23.0032 12.0313 22.9879 12.0465L21.5737 10.6323C20.8502 11.3558 20.8055 12.5143 21.471 13.2915L22.9901 11.9905ZM22.9879 12.0465C22.9727 12.0617 22.9483 12.0626 22.932 12.0486L24.2329 10.5296C23.4557 9.86401 22.2972 9.90876 21.5737 10.6323L22.9879 12.0465ZM22.8753 11.9962L26.3174 15.4383L27.7316 14.0241L24.2896 10.582L22.8753 11.9962ZM27.7316 15.4383L34.2322 8.93766L32.818 7.52344L26.3174 14.0241L27.7316 15.4383ZM34.1756 8.9901C34.1592 9.0041 34.1349 9.00315 34.1197 8.98793L35.5339 7.57372C34.8104 6.8502 33.6519 6.80546 32.8747 7.47101L34.1756 8.9901ZM34.1197 8.98793C34.1044 8.97271 34.1035 8.94834 34.1175 8.93199L35.6366 10.2329C36.3021 9.45574 36.2574 8.29724 35.5339 7.57372L34.1197 8.98793ZM34.1699 8.87534L26.3174 16.7279L27.7316 18.1421L35.5841 10.2896L34.1699 8.87534Z" fill="white" mask="url(#path-2-outside-1)"/>
</svg>
