<svg width="1185" height="116"  fill="none" xmlns="http://www.w3.org/2000/svg">
<mask id="mask0" mask-type="alpha" maskUnits="userSpaceOnUse" x="16" y="0" width="1169" height="116">
<rect x="16" width="1169" height="116" fill="#0079B8"/>
</mask>
<g mask="url(#mask0)">
<g opacity="0.2">
<g clip-path="url(#clip0)">
<path d="M754.817 76.7397C748.468 82.9937 748.31 93.2937 754.463 99.7453C760.616 106.197 770.751 106.357 777.1 100.103C783.45 93.849 783.608 83.5491 777.455 77.0974C771.302 70.6458 761.167 70.4857 754.817 76.7397Z" stroke="white" stroke-width="1.29" stroke-linecap="round" stroke-linejoin="round"/>
<path d="M726.16 104.968C719.81 111.222 719.652 121.522 725.805 127.974C731.958 134.426 742.093 134.586 748.443 128.332C754.792 122.078 754.951 111.778 748.797 105.326C742.644 98.8745 732.509 98.7143 726.16 104.968Z" stroke="white" stroke-width="1.29" stroke-linecap="round" stroke-linejoin="round"/>
<path d="M782.703 105.977C776.354 112.231 776.195 122.531 782.349 128.983C788.502 135.435 798.637 135.595 804.986 129.341C811.335 123.087 811.494 112.787 805.341 106.335C799.188 99.8835 789.052 99.7234 782.703 105.977Z" stroke="white" stroke-width="1.29" stroke-linecap="round" stroke-linejoin="round"/>
<path d="M1072.22 -49.0753C1050.2 -27.3833 1049.65 8.34193 1070.99 30.7192C1092.33 53.0965 1127.49 53.652 1149.51 31.9599C1171.53 10.2679 1172.08 -25.4573 1150.74 -47.8346C1129.4 -70.2118 1094.24 -70.7673 1072.22 -49.0753Z" stroke="white" stroke-width="1.29" stroke-linecap="round" stroke-linejoin="round"/>
<path d="M1076.08 -5.51417C1075.57 -11.4792 1076.55 -17.4781 1078.94 -22.9521C1081.33 -28.426 1085.04 -33.1969 1089.73 -36.8203C1094.42 -40.4438 1099.94 -42.8019 1105.77 -43.6749C1111.6 -44.548 1117.55 -43.9076 1123.07 -41.8135C1128.59 -39.7194 1133.49 -36.2396 1137.33 -31.6984C1141.17 -27.1571 1143.82 -21.7021 1145.02 -15.8415C1146.23 -9.98096 1145.96 -3.90545 1144.23 1.81903C1142.5 7.54351 1139.38 12.7307 1135.14 16.8974" stroke="white" stroke-width="1.29" stroke-linecap="round" stroke-linejoin="round"/>
<path d="M1010.93 10.8794L1087.96 91.6469" stroke="white" stroke-width="1.29" stroke-linecap="round" stroke-linejoin="round"/>
<path d="M899.669 -67.8242L971.275 7.25305" stroke="white" stroke-width="1.29" stroke-linecap="round" stroke-linejoin="round"/>
<path d="M871.67 -40.2447L919.636 10.0468" stroke="white" stroke-width="1.29" stroke-linecap="round" stroke-linejoin="round"/>
<path d="M862.348 -31.062L902.301 10.828" stroke="white" stroke-width="1.29" stroke-linecap="round" stroke-linejoin="round"/>
<path d="M853.01 -21.863L910.202 38.1017" stroke="white" stroke-width="1.29" stroke-linecap="round" stroke-linejoin="round"/>
<path d="M843.687 -12.6808L913.026 60.02" stroke="white" stroke-width="1.29" stroke-linecap="round" stroke-linejoin="round"/>
<path d="M834.365 -3.49868L897.383 62.5747" stroke="white" stroke-width="1.29" stroke-linecap="round" stroke-linejoin="round"/>
<path d="M825.027 5.70034L885.331 68.9286" stroke="white" stroke-width="1.29" stroke-linecap="round" stroke-linejoin="round"/>
<path d="M815.705 14.8824L878.723 80.9558" stroke="white" stroke-width="1.29" stroke-linecap="round" stroke-linejoin="round"/>
<path d="M806.366 24.0812L872.098 92.9997" stroke="white" stroke-width="1.29" stroke-linecap="round" stroke-linejoin="round"/>
<path d="M797.044 33.2636L866.383 105.964" stroke="white" stroke-width="1.29" stroke-linecap="round" stroke-linejoin="round"/>
<path d="M787.705 42.4625L848.01 105.691" stroke="white" stroke-width="1.29" stroke-linecap="round" stroke-linejoin="round"/>
<path d="M961.788 187.039L1073.75 76.7521L1057.74 59.966L945.779 170.253L961.788 187.039Z" stroke="white" stroke-width="1.29" stroke-linecap="round" stroke-linejoin="round"/>
<path d="M900.248 183.973L1042.44 43.9163L1026.43 27.1302L884.238 167.187L900.248 183.973Z" stroke="white" stroke-width="1.29" stroke-linecap="round" stroke-linejoin="round"/>
</g>
</g>
<g opacity="0.4">
<path opacity="0.45" d="M1139.77 -151.702L818.676 169.003H497.316L817.012 -150.288L1139.77 -151.702V-151.702Z" fill="url(#paint0_linear)"/>
<path opacity="0.6" d="M1149.14 -15.2981L862.951 272.087H677.453L962.702 -14.3584L1149.14 -15.2981V-15.2981Z" fill="url(#paint1_linear)"/>
</g>
</g>
<defs>
<linearGradient id="paint0_linear" x1="497.316" y1="-151.702" x2="497.316" y2="169.003" gradientUnits="userSpaceOnUse">
<stop offset="0.13" stop-color="#81C6ED" stop-opacity="0.01"/>
<stop offset="0.24" stop-color="#81C6ED" stop-opacity="0.17"/>
<stop offset="0.41" stop-color="#81C6ED" stop-opacity="0.4"/>
<stop offset="0.56" stop-color="#81C6ED" stop-opacity="0.57"/>
<stop offset="0.7" stop-color="#81C6ED" stop-opacity="0.7"/>
<stop offset="0.81" stop-color="#81C6ED" stop-opacity="0.77"/>
<stop offset="0.9" stop-color="#81C6ED" stop-opacity="0.8"/>
</linearGradient>
<linearGradient id="paint1_linear" x1="677.462" y1="-15.2981" x2="677.462" y2="272.087" gradientUnits="userSpaceOnUse">
<stop stop-color="#42B3A4" stop-opacity="0.01"/>
<stop offset="0.14" stop-color="#22B9A5" stop-opacity="0.21"/>
<stop offset="0.28" stop-color="#22B9A5" stop-opacity="0.37"/>
<stop offset="0.39" stop-color="#22B9A5" stop-opacity="0.47"/>
<stop offset="0.48" stop-color="#22B9A5" stop-opacity="0.5"/>
<stop offset="0.57" stop-color="#22B9A5" stop-opacity="0.47"/>
<stop offset="0.7" stop-color="#22B9A5" stop-opacity="0.37"/>
<stop offset="0.84" stop-color="#22B9A5" stop-opacity="0.21"/>
<stop offset="1" stop-color="#22B9A5" stop-opacity="0.01"/>
</linearGradient>
<clipPath id="clip0">
<rect width="508.608" height="296.031" fill="white" transform="matrix(-0.712424 0.701749 -0.690179 -0.723639 1220.57 -1.78033)"/>
</clipPath>
</defs>
</svg>
