<svg width="24" height="32" viewBox="0 0 24 32" fill="none" xmlns="http://www.w3.org/2000/svg">
    <path fill-rule="evenodd" clip-rule="evenodd" d="M19.1756 13.5215L20.863 14.0639C21.2849 14.1844 21.5862 14.6062 21.5862 15.0281V17.0771C21.5862 17.499 21.2849 17.8606 20.9233 17.9811L19.1756 18.5235L18.814 19.4275L19.6577 20.9944C19.8385 21.356 19.7782 21.8381 19.4769 22.1394L18.0305 23.5858C17.7292 23.8871 17.2471 23.9474 16.8855 23.7666L15.3186 22.9229L14.4146 23.2845L13.8722 25.0322C13.7517 25.3938 13.3901 25.6951 12.9682 25.6951H10.9192C10.4974 25.6951 10.1358 25.3938 10.0152 25.0322L9.47285 23.2845L8.56887 22.9229L7.00197 23.7666C6.64038 23.9474 6.15825 23.8871 5.85693 23.5858L4.41056 22.1394C4.10923 21.8381 4.04897 21.356 4.22976 20.9944L5.07348 19.4275L4.71188 18.5235L3.02445 17.9811C2.6026 17.8606 2.30127 17.499 2.30127 17.0771V15.0281C2.30127 14.6062 2.6026 14.2447 2.96419 14.1241L4.65162 13.5817C4.71188 13.4311 4.77215 13.2653 4.83242 13.0996C4.89268 12.9339 4.95295 12.7682 5.01321 12.6175L4.22976 11.1109C4.04897 10.7493 4.10923 10.2671 4.41056 9.96581L5.85693 8.51944C6.15825 8.21812 6.64038 8.15785 7.00197 8.33865L8.56887 9.18236C8.8702 9.00157 9.17152 8.88104 9.53312 8.82077L10.0755 7.13334C10.1358 6.71148 10.4974 6.41016 10.9192 6.41016H12.9682C13.3901 6.41016 13.7517 6.71148 13.8722 7.07308L14.4146 8.76051L15.3186 9.1221L16.8855 8.27838C17.2471 8.09759 17.7292 8.15785 18.0305 8.45918L19.4769 9.90555C19.7782 10.2069 19.8385 10.689 19.6577 11.0506L18.814 12.6175L19.1756 13.5215ZM17.8041 17.4615L19.8328 16.8416V15.2638L17.8041 14.6439L17.7478 14.3621C17.6351 13.9677 17.466 13.5732 17.2406 13.1787L17.0716 12.897L18.0859 11.0374L16.9589 9.91032L15.0992 10.9247L14.8175 10.7556C14.423 10.5302 14.0286 10.3611 13.6341 10.2484L13.3523 10.1357L12.7325 8.1634H11.1546L10.5347 10.1357L10.253 10.2484C9.80215 10.3611 9.40768 10.5302 9.01322 10.7556L8.73146 10.9247L6.92819 9.91032L5.80115 11.0374L6.75914 12.897L6.59008 13.1787C6.36467 13.5732 6.19562 13.9677 6.08291 14.4185L5.97021 14.7002L4.05424 15.2638V16.8416L6.08291 17.4615L6.13926 17.7433C6.25197 18.1377 6.42102 18.5322 6.64643 18.9266L6.81549 19.2084L5.80115 21.068L6.92819 22.1951L8.78781 21.1807L9.06957 21.3498L10.253 21.857L10.5347 21.9133L11.1546 23.942H12.7325L13.3523 21.9133L13.6341 21.857C14.0286 21.7443 14.423 21.5752 14.8175 21.3498L15.0992 21.1807L16.9589 22.1951L18.0859 21.068L17.0716 19.2084L17.2406 18.9266L17.7478 17.7433L17.8041 17.4615ZM12.0215 11.6695C9.5796 11.6695 7.63858 13.6105 7.63858 16.0525C7.63858 18.4944 9.5796 20.4354 12.0215 20.4354C14.4635 20.4354 16.4045 18.4944 16.4045 16.0525C16.4045 13.6105 14.4635 11.6695 12.0215 11.6695ZM9.39164 16.0525C9.39164 17.5252 10.5488 18.6824 12.0215 18.6824C13.4943 18.6824 14.6515 17.5252 14.6515 16.0525C14.6515 14.5797 13.4943 13.4226 12.0215 13.4226C10.5488 13.4226 9.39164 14.5797 9.39164 16.0525Z" fill="#0079B8"/>
    <path d="M14.7944 6.25874C15.1007 6.56321 15.5954 6.56321 15.9017 6.25874C16.2061 5.95246 16.2061 5.45779 15.9017 5.15151L14.763 4.01286L21.7913 4.01277L21.7913 12.3682C21.7913 12.8019 22.1428 13.1535 22.5765 13.1535C23.0102 13.1535 23.3618 12.8019 23.3618 12.3682L23.3618 4.01277C23.3618 3.14538 22.6587 2.44222 21.7913 2.44222L14.8023 2.44231L15.9017 1.33508C16.2061 1.02879 16.2061 0.534132 15.9017 0.227847C15.7554 0.0827722 15.558 0.000983581 15.352 0.000116134C15.1433 -0.00109066 14.9426 0.0808542 14.7944 0.227847L11.7789 3.22759L14.7944 6.25874Z" fill="#0079B8"/>
    <path d="M8.56739 25.7413C8.2611 25.4368 7.76642 25.4368 7.46014 25.7413C7.15567 26.0475 7.15567 26.5422 7.46014 26.8485L8.5988 27.9871L1.57054 27.9872L1.57055 19.6318C1.57055 19.1981 1.21897 18.8465 0.785273 18.8465C0.351579 18.8465 3.08933e-07 19.1981 3.08933e-07 19.6318L0 27.9872C0 28.8546 0.703157 29.5578 1.57054 29.5578L8.55953 29.5577L7.46014 30.6649C7.15567 30.9712 7.15567 31.4659 7.46014 31.7722C7.6064 31.9172 7.80383 31.999 8.00983 31.9999C8.21856 32.0011 8.41919 31.9191 8.56739 31.7722L11.5829 28.7724L8.56739 25.7413Z" fill="#0079B8"/>
</svg>
