<svg id="Layer_1" data-name="Layer 1" xmlns="http://www.w3.org/2000/svg" xmlns:xlink="http://www.w3.org/1999/xlink" viewBox="0 0 16 16"><defs><style>.cls-1{fill:none;clip-rule:evenodd;}.cls-2{clip-path:url(#clip-path);}.cls-3{clip-path:url(#clip-path-2);}.cls-4{fill:#fff;}.cls-5{fill:#38718e;}.cls-6{fill:#cbdae0;}</style><clipPath id="clip-path"><path class="cls-1" d="M57.81-160.22a5.49,5.49,0,0,0,2.34,4.5h6.33a5.52,5.52,0,0,0,1.34-1.34v-6.33a5.49,5.49,0,0,0-4.5-2.34A5.5,5.5,0,0,0,57.81-160.22Z"/></clipPath><clipPath id="clip-path-2"><polyline class="cls-1" points="143 50.89 143 48.89 145 48.89"/></clipPath></defs><title>VM 16x</title><rect class="cls-4" x="3" y="1" width="9" height="9"/><rect class="cls-4" x="1" y="6" width="9" height="9"/><rect class="cls-4" x="6" y="4" width="9" height="9"/><path class="cls-5" d="M10,15H1V6h9ZM2,14H9V7H2Z"/><polygon class="cls-5" points="7 6 7 5 11 5 11 4 6 4 6 6 7 6"/><polygon class="cls-5" points="11 5 12 5 12 1 3 1 3 6.5 4 6.5 4 2 11 2 11 5"/><polygon class="cls-6" points="11 5 11 9 10 9 10 10 11 10 11.4 10 12 10 12 5 11 5"/><polygon class="cls-6" points="7 7 6 7 6 9 4 9 4 7 3 7 3 10 6 10 6 13 6.3 13 7 13 9 13 9 12 7 12 7 10 9 10 9 9 7 9 7 7"/><polygon class="cls-5" points="12 4 12 5 14.2 5 14.2 12 10 12 10 13 15 13 15 4 12 4"/></svg>